# xmcd
#
# Track frame offsets:
# 150
# 18799
# 31221
# 54694
# 70709
# 84568
# 100023
# 110531
# 123691
# 138988
# 150719
# 163264
# 178843
# 191443
#
# Disc length: 2714 seconds
#
#
# Revision: 0
# Processed by: cddbd v1.5.1PL0 Copyright (c) Steve Scherf et al.
# Submitted via: FreeRIP 2.941 
#
DISCID=b80a980e
DTITLE=Bob Johnson and the Flatliners - Fast Train to Nowhere
DYEAR=2004
DGENRE=Blues
TTITLE0=Trust Fund Baby
TTITLE1=Case of The Blues
TTITLE2=Mexican Border
TTITLE3=Nobody Knows You When Your Down and Out
TTITLE4=You Ain't Goin' Nowhere
TTITLE5=Why am I Not Surprised
TTITLE6=Old Black Chevy
TTITLE7=Fool Out of You
TTITLE8=Things of Beauty
TTITLE9=Bad Boy Blues
TTITLE10=Stealin'
TTITLE11=Everything Hurts But My Hair
TTITLE12=Chicken Cordon Blues
TTITLE13=Think of You
EXTD=As heard on BluesfestRadio.com
EXTT0=
EXTT1=
EXTT2=
EXTT3=
EXTT4=
EXTT5=
EXTT6=
EXTT7=
EXTT8=
EXTT9=
EXTT10=
EXTT11=
EXTT12=
EXTT13=
PLAYORDER=
